<svg xmlns="http://www.w3.org/2000/svg" viewBox="0 0 16 16" width="16" height="16" class="e1usdfqm4 css-18fanhe e1x29g350" aria-hidden="true"><path d="M9.67 16c.535 0 1.002-.466 1.002-1.002V12.66h.668c.402 0 .67-.268.67-.67V5.31H3.99v6.68c0 .402.267.67.669.67h.668v2.339c0 .534.467 1.001 1.002 1.001.535 0 1.001-.466 1.001-1.001v-2.34H8.67V15c0 .534.466 1.001 1.001 1.001Z" fill="#3AD47E"></path><path d="M13.68 11.99c.534 0 1-.466 1-1V6.311c0-.533-.466-1.001-1-1.001-.536 0-1.002.468-1.002 1v4.678c0 .535.466 1.002 1.001 1.002Z" fill="#3AD47E"></path><path d="M2.32 11.99c.536 0 1.002-.466 1.002-1V6.311c0-.533-.466-1.001-1.001-1.001-.535 0-1.002.468-1.002 1v4.678c0 .535.467 1.002 1.002 1.002Z" fill="#3AD47E"></path><path d="M11.207.1a.32.32 0 0 0-.467 0l-.897.895-.041.041C9.27.77 8.674.636 8.01.636h-.02c-.664 0-1.26.134-1.792.4L6.157.995 5.26.1a.32.32 0 0 0-.467 0 .32.32 0 0 0 0 .466l.868.868c-.28.186-.533.415-.753.676a3.927 3.927 0 0 0-.911 2.322l-.002.027c-.003.06-.004.12-.004.181h8.018c0-.06-.001-.12-.004-.18l-.002-.028a3.925 3.925 0 0 0-.91-2.322 3.616 3.616 0 0 0-.754-.676l.868-.868a.32.32 0 0 0 0-.466ZM6.329 3.475a.501.501 0 1 1 0-1.002.501.501 0 0 1 0 1.002Zm3.343 0a.501.501 0 1 1 0-1.002.501.501 0 0 1 0 1.002Z" fill="#3AD47E"></path></svg>