<svg xmlns="http://www.w3.org/2000/svg" viewBox="0 0 16 16" width="16" height="16" class="e1usdfqm4 css-18fanhe e1x29g350" aria-hidden="true"><path d="M12.362 8.5c-.018-2.023 1.653-2.994 1.728-3.041-.94-1.376-2.403-1.564-2.925-1.586-1.244-.126-2.429.732-3.06.732-.63 0-1.606-.714-2.637-.694-1.359.02-2.61.789-3.308 2.004-1.41 2.445-.36 6.07 1.012 8.055.672.97 1.472 2.063 2.524 2.023 1.014-.04 1.397-.655 2.62-.655s1.568.655 2.639.636c1.089-.021 1.78-.992 2.447-1.965.77-1.127 1.088-2.217 1.107-2.274-.025-.01-2.124-.815-2.147-3.235Z" fill="#B3B3B3"></path><path d="M10.35 2.56c.558-.677.935-1.617.831-2.554-.804.033-1.777.536-2.354 1.212-.517.598-.97 1.555-.848 2.473.897.07 1.813-.456 2.371-1.131Z" fill="#B3B3B3"></path></svg>