<svg xmlns="http://www.w3.org/2000/svg" viewBox="0 0 16 16" width="16" height="16" class="css-1pa2hnj e1x29g350" aria-hidden="true"><path d="M14.091 12.565c-.113-.128-.166-.364-.224-.615-.058-.25-.122-.522-.328-.697l-.002-.001a.86.86 0 0 0-.253-.153c.287-.85.175-1.695-.115-2.46-.354-.938-.974-1.756-1.447-2.315-.53-.668-1.048-1.302-1.038-2.24C10.7 2.656 10.841.005 8.325 0c-.102 0-.209.004-.32.013C5.193.24 5.939 3.21 5.897 4.205c-.051.727-.199 1.3-.699 2.011-.588.7-1.415 1.83-1.807 3.008-.185.556-.273 1.123-.192 1.659-.025.023-.05.047-.073.071-.172.184-.3.407-.442.558-.133.132-.322.183-.53.257-.208.075-.436.185-.574.45l-.001.002a.802.802 0 0 0-.087.386c0 .123.019.248.037.368.038.25.077.486.026.646-.165.45-.186.761-.07.987.116.226.355.326.624.382.54.113 1.27.085 1.846.39l.05-.093-.05.093c.617.323 1.242.437 1.74.323.362-.082.656-.298.807-.629.39-.002.817-.167 1.503-.205.465-.037 1.046.166 1.714.128a.905.905 0 0 0 .077.209l.002.002c.259.518.74.755 1.253.714.513-.04 1.06-.343 1.501-.868l-.081-.068.082.067c.42-.51 1.119-.722 1.582-1.001.231-.14.419-.314.434-.569.014-.253-.135-.538-.478-.918Z" fill="#202020"></path><path d="M14.357 13.471c-.009.157-.122.274-.332.4-.419.252-1.161.472-1.635 1.046-.412.49-.914.76-1.356.794-.442.035-.824-.148-1.049-.6v-.002c-.14-.265-.082-.684.036-1.126.117-.441.286-.895.309-1.264.024-.473.05-.886.13-1.204.079-.318.204-.534.425-.655l.03-.016c.026.41.229.827.587.917.391.103.956-.233 1.194-.507l.14-.006c.209-.005.384.007.563.164h.002c.137.118.203.338.26.585.056.247.102.516.272.708.328.364.433.61.424.766Z" fill="#FFCD00"></path><path d="M6.397 14.63v.002c-.038.496-.318.767-.748.865-.43.098-1.013 0-1.595-.304-.644-.341-1.41-.307-1.901-.41-.246-.051-.407-.128-.48-.272-.073-.143-.075-.393.081-.82v-.002l.001-.002c.078-.238.02-.5-.017-.744-.038-.245-.056-.468.028-.623v-.002c.108-.206.265-.28.46-.35.195-.07.426-.125.608-.308l.002-.001c.17-.179.296-.402.444-.56.126-.134.251-.223.44-.224h.006a.71.71 0 0 1 .106.009c.25.037.469.213.68.498l.607 1.108v.001c.162.338.504.71.793 1.088.29.379.514.76.485 1.05Z" fill="#FFCD00"></path><path d="M9.428 4.302c-.049-.096-.148-.187-.318-.256-.354-.152-.507-.163-.704-.29-.32-.207-.586-.28-.806-.278a.952.952 0 0 0-.31.052c-.269.093-.447.285-.558.391-.023.021-.05.04-.12.09l-.32.238c-.132.099-.175.228-.129.379.045.15.191.325.457.475h.001c.165.098.278.229.408.333a.912.912 0 0 0 .215.134.874.874 0 0 0 .298.065c.281.017.488-.068.671-.172.184-.105.339-.233.517-.29v-.001c.366-.114.626-.344.707-.562a.37.37 0 0 0-.009-.308Z" fill="#FFCD00"></path><path d="M8.502 4.84c-.29.152-.63.336-.99.336-.361 0-.646-.167-.85-.33-.103-.08-.187-.162-.25-.22-.108-.086-.095-.207-.05-.203.075.01.086.108.133.152.064.06.144.137.24.214.195.154.453.303.777.303.323 0 .7-.19.93-.319.13-.073.297-.204.432-.303.104-.076.1-.168.185-.158.086.01.023.101-.097.206-.12.104-.307.243-.46.323Z" fill="#202020"></path><path d="M12.949 11.037a1.883 1.883 0 0 0-.119 0h-.01c.1-.315-.121-.547-.71-.813-.609-.268-1.095-.241-1.176.303-.006.028-.01.057-.013.087a.935.935 0 0 0-.137.06c-.287.157-.443.441-.53.79-.087.348-.112.77-.135 1.242-.015.239-.113.56-.212.902-.999.712-2.385 1.02-3.561.217a5.23 5.23 0 0 0-.266-.374c-.06-.079-.122-.157-.183-.234a.74.74 0 0 0 .307-.057.388.388 0 0 0 .211-.219c.072-.193 0-.465-.23-.776-.23-.31-.619-.661-1.19-1.012-.42-.261-.655-.582-.765-.929-.11-.348-.094-.724-.01-1.095.163-.712.58-1.405.848-1.84.071-.053.025.098-.27.647-.265.501-.76 1.66-.082 2.563a5.373 5.373 0 0 1 .43-1.913c.375-.85 1.16-2.327 1.223-3.504a3.306 3.306 0 0 0 .192.126c.144.085.252.209.393.322a.97.97 0 0 0 .655.228 1.3 1.3 0 0 0 .664-.191c.193-.11.347-.233.493-.28.31-.097.555-.268.695-.467.24.946.797 2.311 1.156 2.978.19.353.57 1.104.733 2.01a1.23 1.23 0 0 1 .34.043c.43-1.11-.362-2.307-.724-2.64-.146-.142-.153-.205-.081-.202.393.347.908 1.046 1.096 1.834.085.36.104.737.012 1.11l.136.061c.688.335.942.626.82 1.023Z" fill="white"></path><path d="M9.46 3.213a1.2 1.2 0 0 1-.244.748 4.779 4.779 0 0 0-.248-.102c-.057-.022-.1-.036-.145-.052.032-.04.097-.086.12-.145a.765.765 0 0 0 .058-.277l.001-.012a.767.767 0 0 0-.04-.269.496.496 0 0 0-.123-.21.254.254 0 0 0-.177-.08h-.01a.26.26 0 0 0-.172.068.493.493 0 0 0-.14.2.768.768 0 0 0-.057.278v.011a.817.817 0 0 0 .01.16 2.025 2.025 0 0 0-.403-.137c-.007-.05-.01-.1-.011-.152v-.014a1.18 1.18 0 0 1 .1-.51.904.904 0 0 1 .286-.375.632.632 0 0 1 .394-.14h.007c.143 0 .265.042.39.132a.89.89 0 0 1 .293.37 1.188 1.188 0 0 1 .112.508Z" fill="white"></path><path d="M7.305 3.4a1.115 1.115 0 0 0-.316.143.708.708 0 0 0 .003-.171v-.01a.745.745 0 0 0-.055-.218.424.424 0 0 0-.11-.162.18.18 0 0 0-.136-.05c-.047.003-.087.027-.125.073a.424.424 0 0 0-.08.178.716.716 0 0 0-.015.233v.01c.009.082.026.15.055.22a.416.416 0 0 0 .132.178c-.046.036-.078.062-.117.09l-.088.065a.804.804 0 0 1-.183-.273 1.22 1.22 0 0 1-.102-.435V3.27c-.009-.162.007-.3.051-.445a.76.76 0 0 1 .19-.333.41.41 0 0 1 .302-.134c.095 0 .18.031.268.101a.78.78 0 0 1 .227.31c.06.137.092.274.101.435v.002c.004.068.004.131-.002.193Z" fill="white"></path><path d="M7.782 3.785c.012.04.074.033.11.051.031.016.057.052.092.053.034.001.086-.012.09-.045.007-.045-.058-.073-.1-.089-.053-.02-.122-.031-.172-.004-.012.007-.024.022-.02.034Z" fill="#202020"></path><path d="M7.29 3.785c-.015.04-.09.033-.134.051-.038.016-.069.052-.112.053-.041.001-.105-.012-.11-.045-.007-.045.071-.073.122-.089.065-.02.148-.031.21-.004.013.007.028.022.024.034Z" fill="#202020"></path></svg>