<svg width="20" height="20" viewBox="0 0 20 20" fill="none" xmlns="http://www.w3.org/2000/svg">
<g clip-path="url(#clip0_5_2)">
<path fill-rule="evenodd" clip-rule="evenodd" d="M18.0007 13C18.0007 13.552 17.5529 14 17.001 14H3.00595C2.45414 14 2.0063 13.552 2.0063 13V3C2.0063 2.448 2.45414 2 3.00595 2H17.001C17.5529 2 18.0007 2.448 18.0007 3V13ZM17.9907 0H1.9963H1.9923C0.888688 0 0 0.91502 0 2.02002L0.00699615 2.04004V14.04L0 14.02C0 15.125 0.888688 16 1.9923 16H1.9963H7.9902C8.54301 16 9.00385 16.468 9.00385 17.02V17.0098C9.00385 17.5618 8.54301 18 7.9902 18H4.99125C4.43945 18 4.0056 18.468 4.0056 19.02V19.0098C4.0056 19.5618 4.43945 20 4.99125 20H14.9878C15.5406 20 16.0014 19.572 16.0014 19.02V19.0098C16.0014 18.4578 15.5406 18 14.9878 18H11.9888C11.437 18 11.0031 17.572 11.0031 17.02V17.0098C11.0031 16.4578 11.437 16 11.9888 16H17.9907L17.9977 16.02C19.0993 16.02 20 15.146 20 14.043V14.04V2.04004V2.03711C20 0.934109 19.0993 0.0200195 17.9977 0.0200195L17.9907 0Z" fill="#555555"/>
</g>
<defs>
<clipPath id="clip0_5_2">
<rect width="20" height="20" fill="white"/>
</clipPath>
</defs>
</svg>
