<svg width="14" height="20" viewBox="0 0 14 20" fill="none" xmlns="http://www.w3.org/2000/svg">
<path fill-rule="evenodd" clip-rule="evenodd" d="M3 0C1.34315 0 0 1.34315 0 3V17C0 18.6569 1.34315 20 3 20H11C12.6569 20 14 18.6569 14 17V3C14 1.34315 12.6569 0 11 0H3ZM2 3C2 2.44772 2.44772 2 3 2H11C11.5523 2 12 2.44772 12 3V17C12 17.5523 11.5523 18 11 18H3C2.44772 18 2 17.5523 2 17V3ZM5 15C4.44772 15 4 15.4477 4 16C4 16.5523 4.44772 17 5 17H9C9.5523 17 10 16.5523 10 16C10 15.4477 9.5523 15 9 15H5Z" fill="#555555"/>
</svg>
