<svg xmlns="http://www.w3.org/2000/svg" viewBox="0 0 16 16" width="16" height="16" class="css-1pa2hnj e1x29g350" aria-hidden="true"><path d="M3.75 6a.75.75 0 0 1 .75-.75h7a.75.75 0 0 1 0 1.5h-7A.75.75 0 0 1 3.75 6Z"></path><path d="M4.5 8.25a.75.75 0 0 0 0 1.5h3a.75.75 0 0 0 0-1.5h-3Z"></path><path d="M3.722 1h8.556c.326 0 .615 0 .854.02.255.02.519.067.776.198a2 2 0 0 1 .874.874c.131.257.178.521.198.776.02.24.02.528.02.854v7.556c0 .326 0 .615-.02.854-.02.255-.067.519-.198.776a2 2 0 0 1-.874.874 2.032 2.032 0 0 1-.776.198c-.24.02-.528.02-.854.02H4.76c-.314 0-.358.004-.393.012a.501.501 0 0 0-.135.051c-.031.018-.067.044-.302.253L2.248 15.81A.75.75 0 0 1 1 15.25V3.722c0-.326 0-.615.02-.854.02-.255.067-.519.198-.776a2 2 0 0 1 .874-.874c.257-.131.521-.178.776-.198.24-.02.528-.02.854-.02ZM2.99 2.515c-.162.013-.207.034-.217.04a.5.5 0 0 0-.219.218c-.005.01-.026.055-.04.217-.013.17-.014.398-.014.76v9.83l.472-.42c.171-.152.336-.299.53-.407.169-.094.351-.164.54-.206.217-.048.437-.047.667-.047h7.541c.362 0 .59 0 .76-.014.162-.014.207-.035.217-.04a.5.5 0 0 0 .218-.219c.006-.01.027-.055.04-.217.014-.17.015-.398.015-.76v-7.5c0-.362 0-.59-.014-.76-.014-.162-.035-.207-.04-.217a.5.5 0 0 0-.219-.219c-.01-.005-.055-.026-.217-.04-.17-.013-.398-.014-.76-.014h-8.5c-.362 0-.59 0-.76.015Z" fill-rule="evenodd"></path></svg>