<svg xmlns="http://www.w3.org/2000/svg" viewBox="0 0 16 16" width="16" height="16" class="css-1pa2hnj e1x29g350" aria-hidden="true"><path d="M1 4.2c0-1.12 0-1.68.218-2.108a2 2 0 0 1 .874-.874C2.52 1 3.08 1 4.2 1h7.6c1.12 0 1.68 0 2.108.218a2 2 0 0 1 .874.874C15 2.52 15 3.08 15 4.2v7.6c0 1.12 0 1.68-.218 2.108a2 2 0 0 1-.874.874C13.48 15 12.92 15 11.8 15H4.2c-1.12 0-1.68 0-2.108-.218a2 2 0 0 1-.874-.874C1 13.48 1 12.92 1 11.8V4.2Zm3.2-1.7h7.6c.585 0 .933.001 1.191.022.158.013.224.03.242.036a.5.5 0 0 1 .21.209c.005.018.022.084.035.242.02.258.022.606.022 1.191v7.6c0 .585-.001.933-.022 1.191-.013.158-.03.224-.036.242a.5.5 0 0 1-.209.21 1.253 1.253 0 0 1-.242.035c-.258.02-.606.022-1.191.022H4.2c-.585 0-.933-.001-1.191-.022a1.253 1.253 0 0 1-.242-.036.5.5 0 0 1-.21-.209 1.255 1.255 0 0 1-.035-.242c-.02-.258-.022-.606-.022-1.191V4.2c0-.585.001-.933.022-1.191.013-.158.03-.224.036-.242a.5.5 0 0 1 .209-.21c.018-.005.084-.022.242-.035.258-.02.606-.022 1.191-.022Zm9.038.06-.003-.002.003.001Zm.203.202v.003-.003Zm0 10.476v-.003.003Zm-.203.203h-.003.003Zm-10.476 0h.003-.003ZM2.559 2.76v.004-.003Zm.203-.202h.003-.003Z" fill-rule="evenodd"></path><path d="M7.98 4.75c-.641 0-1.137.43-1.246.945a.75.75 0 0 1-1.468-.313c.265-1.241 1.4-2.132 2.714-2.132 1.494 0 2.77 1.162 2.77 2.673 0 1.25-.873 2.26-2.02 2.573V8.5a.75.75 0 1 1-1.5 0v-.654a.75.75 0 0 1 .75-.75c.737 0 1.27-.56 1.27-1.173S8.717 4.75 7.98 4.75Z" fill-rule="evenodd"></path><path d="M9 11a1 1 0 1 1-2 0 1 1 0 0 1 2 0Z"></path></svg>