<svg xmlns="http://www.w3.org/2000/svg" viewBox="0 0 16 16" width="16" height="16" class="e1usdfqm4 css-18fanhe e1x29g350" aria-hidden="true"><path d="M12.82.635c1.578-.547 3.092.967 2.545 2.545L11.41 14.588c-.688 1.985-3.58 1.702-3.87-.378L6.861 9.35a.25.25 0 0 0-.213-.213L1.79 8.461C-.29 8.17-.573 5.278 1.41 4.59L12.82.634Zm1.127 2.054a.5.5 0 0 0-.636-.636L1.903 6.007c-.496.172-.425.895.095.968l4.858.678a1.75 1.75 0 0 1 1.491 1.491l.678 4.858c.073.52.796.591.968.095l3.954-11.408Z" fill-rule="evenodd"></path></svg>