<svg xmlns="http://www.w3.org/2000/svg" viewBox="0 0 16 16" width="16" height="16" class="e1usdfqm4 css-18fanhe e1x29g350" aria-hidden="true"><path d="M8 1a3 3 0 1 0 0 6 3 3 0 0 0 0-6ZM6.5 4a1.5 1.5 0 1 1 3 0 1.5 1.5 0 0 1-3 0Z" fill-rule="evenodd"></path><path d="M8 8c-2.972 0-5.377 2.338-5.895 5.118C1.9 14.217 2.83 15 3.75 15h8.5c.92 0 1.85-.783 1.645-1.882C13.377 10.338 10.972 8 8 8Zm-4.42 5.393C3.984 11.225 5.846 9.5 8 9.5s4.016 1.725 4.42 3.893c.003.014.001.02 0 .022a.071.071 0 0 1-.017.027.213.213 0 0 1-.153.058h-8.5a.213.213 0 0 1-.153-.058.072.072 0 0 1-.018-.026c0-.003-.002-.008 0-.023Z" fill-rule="evenodd"></path></svg>