<svg xmlns="http://www.w3.org/2000/svg" viewBox="0 0 16 16" width="16" height="16" class="css-1pa2hnj e1x29g350" aria-hidden="true"><path d="m15.09 4.29-6.478.003A3.758 3.758 0 0 1 11.757 8a3.757 3.757 0 0 1-.948 2.49l-3.212 5.5a8 8 0 0 0 7.493-11.7Z" fill="#FFCD40"></path><path d="M8 0a7.994 7.994 0 0 0-6.807 3.796l3.121 4.917c.015.234-.07-.696-.07-.713A3.757 3.757 0 0 1 8 4.243c.195.002.39.018.581.05l6.508-.002A7.999 7.999 0 0 0 8 0Z" fill="#DB4437"></path><path d="M1.193 3.796A8 8 0 0 0 7.597 15.99l3.212-5.5A3.757 3.757 0 0 1 8 11.757a3.757 3.757 0 0 1-3.686-3.044L1.193 3.796Z" fill="#0F9D58"></path><path d="M8 11.757a3.757 3.757 0 1 0 0-7.514 3.757 3.757 0 0 0 0 7.514Z" fill="#F1F1F1"></path><path d="M8 11.1a3.1 3.1 0 1 0 0-6.2 3.1 3.1 0 0 0 0 6.2Z" fill="#4285F4"></path></svg>