<svg xmlns="http://www.w3.org/2000/svg" viewBox="0 0 16 16" width="16" height="16" class="e1usdfqm4 css-18fanhe e1x29g350" aria-hidden="true"><path d="M3.5 5a1 1 0 1 0 0-2 1 1 0 0 0 0 2Z"></path><path d="M7 4a1 1 0 1 1-2 0 1 1 0 0 1 2 0Z"></path><path d="M0 4.2c0-1.12 0-1.68.218-2.108a2 2 0 0 1 .874-.874C1.52 1 2.08 1 3.2 1h9.6c1.12 0 1.68 0 2.108.218a2 2 0 0 1 .874.874C16 2.52 16 3.08 16 4.2v7.6c0 1.12 0 1.68-.218 2.108a2 2 0 0 1-.874.874C14.48 15 13.92 15 12.8 15H3.2c-1.12 0-1.68 0-2.108-.218a2 2 0 0 1-.874-.874C0 13.48 0 12.92 0 11.8V4.2Zm3.2-1.7h9.6c.585 0 .933.001 1.191.022.158.013.224.03.242.036a.5.5 0 0 1 .21.209c.005.018.022.084.035.242.02.258.022.606.022 1.191v1.3h-13V4.2c0-.585.001-.933.022-1.191.013-.158.03-.224.036-.242a.5.5 0 0 1 .209-.21c.018-.005.084-.022.242-.035.258-.02.606-.022 1.191-.022ZM1.5 7v4.8c0 .585.001.933.022 1.191.013.158.03.224.036.242a.5.5 0 0 0 .209.21c.018.005.084.022.242.035.258.02.606.022 1.191.022h9.6c.585 0 .933-.001 1.191-.022.158-.013.224-.03.242-.036a.5.5 0 0 0 .21-.209c.005-.018.022-.084.035-.242.02-.258.022-.606.022-1.191V7h-13Zm12.738-4.44-.003-.002a.03.03 0 0 1 .003.001Zm.203.202v.003-.003Zm0 10.476v-.003a.014.014 0 0 1 0 .003Zm-.203.203h-.003.003Zm-12.476 0h.003-.003Zm-.203-.203Zm0-10.476v.003-.003Zm.203-.203h.003-.003Z" fill-rule="evenodd"></path></svg>