<svg xmlns="http://www.w3.org/2000/svg" viewBox="0 0 16 16" width="16" height="16" class="e1usdfqm4 css-18fanhe e1x29g350" aria-hidden="true"><path d="M14.44 11.909c-.213.111-.433.21-.658.294a6.366 6.366 0 0 1-2.244.404c-2.957 0-5.534-2.035-5.534-4.645a1.968 1.968 0 0 1 1.027-1.707c-2.675.112-3.362 2.9-3.362 4.533 0 4.617 4.255 5.086 5.172 5.086.495 0 1.24-.144 1.688-.285l.082-.028a8.021 8.021 0 0 0 4.162-3.3.25.25 0 0 0-.332-.352Z" fill="#0C59A4"></path><path d="M6.607 15.089a4.95 4.95 0 0 1-1.421-1.334 5.045 5.045 0 0 1 1.845-7.5c.195-.092.528-.258.972-.25a2.022 2.022 0 0 1 1.605.813c.253.337.392.745.398 1.166 0-.013 1.528-4.975-5-4.975-2.744 0-5 2.604-5 4.888a8.134 8.134 0 0 0 .757 3.5 8 8 0 0 0 9.773 4.194 4.723 4.723 0 0 1-3.923-.5l-.006-.002Z" fill="#1B9DE2"></path><path d="M9.52 9.304c-.051.065-.207.156-.207.354 0 .163.106.32.295.451.899.625 2.593.543 2.598.543a3.722 3.722 0 0 0 1.892-.522 3.836 3.836 0 0 0 1.901-3.305c.017-1.4-.5-2.332-.708-2.744C13.966 1.49 11.107 0 7.999 0a8 8 0 0 0-8 7.888c.03-2.284 2.3-4.129 5-4.129.219 0 1.466.022 2.625.63 1.021.536 1.556 1.183 1.928 1.825.386.667.455 1.51.455 1.845 0 .336-.171.834-.488 1.245Z" fill="url(#paint0_radial_4686_8663)"></path><path d="M9.52 9.304c-.051.065-.207.156-.207.354 0 .163.106.32.295.451.899.625 2.593.543 2.598.543a3.722 3.722 0 0 0 1.892-.522 3.836 3.836 0 0 0 1.901-3.305c.017-1.4-.5-2.332-.708-2.744C13.966 1.49 11.107 0 7.999 0a8 8 0 0 0-8 7.888c.03-2.284 2.3-4.129 5-4.129.219 0 1.466.022 2.625.63 1.021.536 1.556 1.183 1.928 1.825.386.667.455 1.51.455 1.845 0 .336-.171.834-.488 1.245Z" fill="#35C761"></path></svg>