<svg xmlns="http://www.w3.org/2000/svg" viewBox="0 0 16 16" width="16" height="16" class="css-1pa2hnj e1x29g350" aria-hidden="true"><path d="M7.968 6.76c-.013.193-.694.858-.933.858-2.205 0-2.563 1.334-2.563 1.334.098 1.123.88 2.049 1.827 2.538a4.275 4.275 0 0 0 .359.156c.324.115.664.18 1.008.194 3.865.182 4.614-4.621 1.825-6.015a2.677 2.677 0 0 1 1.87.454 3.914 3.914 0 0 0-3.398-1.984c-.092 0-.182.007-.273.013a3.879 3.879 0 0 0-2.134.823c.119.1.252.234.533.51.526.52 1.876 1.056 1.879 1.12Z" fill="#9400FF"></path><path d="M15.129 5.367c-.337-.81-1.02-1.686-1.556-1.962.382.739.647 1.533.786 2.353l.001.013c-.877-2.185-2.363-3.067-3.578-4.986A9.242 9.242 0 0 1 10.6.488a2.45 2.45 0 0 1-.086-.16 1.41 1.41 0 0 1-.12-.32A.02.02 0 0 0 10.38 0a.028.028 0 0 0-.015 0l-.003.002-.006.003.003-.005c-1.948 1.14-2.609 3.252-2.67 4.308.091-.007.18-.014.273-.014a3.913 3.913 0 0 1 3.398 1.984 2.677 2.677 0 0 0-1.87-.454c2.79 1.394 2.04 6.197-1.824 6.015a3.448 3.448 0 0 1-1.01-.194 4.116 4.116 0 0 1-.227-.094c-.044-.02-.088-.04-.13-.062l.004.003a4.242 4.242 0 0 1-.112-.056c.036.018.07.037.107.053-.947-.49-1.729-1.414-1.826-2.538 0 0 .358-1.334 2.563-1.334.238 0 .92-.665.932-.858-.003-.063-1.352-.6-1.879-1.118-.28-.277-.414-.41-.532-.51a2.318 2.318 0 0 0-.2-.153 3.595 3.595 0 0 1-.022-1.895 5.743 5.743 0 0 0-1.867 1.443h-.003c-.308-.39-.286-1.674-.268-1.943-.091.037-.178.083-.26.138-.27.193-.524.41-.757.649-.266.27-.508.56-.725.87v.001-.001A6.55 6.55 0 0 0 .415 6.59l-.01.051c-.016.069-.081.415-.09.49 0-.006 0 .005 0 0-.06.357-.098.718-.115 1.08v.04a7.755 7.755 0 0 0 15.397 1.312c.013-.1.023-.2.035-.3a7.974 7.974 0 0 0-.503-3.896Zm-.77.399.002.008-.001-.008Z" fill="#FF9400"></path></svg>