<svg xmlns="http://www.w3.org/2000/svg" viewBox="0 0 16 16" width="16" height="16" class="css-1pa2hnj e1x29g350" aria-hidden="true"><path d="M15.707 8.614c0 .97-.2 1.93-.587 2.826a7.375 7.375 0 0 1-1.67 2.397 7.738 7.738 0 0 1-2.5 1.6A7.997 7.997 0 0 1 8 16a7.997 7.997 0 0 1-2.95-.562 7.738 7.738 0 0 1-2.5-1.601A7.374 7.374 0 0 1 .88 11.44a7.12 7.12 0 0 1-.587-2.827c0-1.959.812-3.837 2.258-5.222C3.996 2.006 5.956 1.228 8 1.228c1.012 0 2.014.191 2.95.562a7.737 7.737 0 0 1 2.5 1.602 7.374 7.374 0 0 1 1.67 2.396 7.12 7.12 0 0 1 .587 2.826Z" fill="black"></path><path d="M16 7.962a7.928 7.928 0 0 1-2.343 5.63 8.032 8.032 0 0 1-11.314 0A7.943 7.943 0 0 1 0 7.962c0-2.111.843-4.137 2.343-5.63A8.02 8.02 0 0 1 11.062.606c.97.4 1.852.987 2.595 1.726A7.96 7.96 0 0 1 16 7.962Z" fill="white"></path><path d="M15.373 7.962a7.32 7.32 0 0 1-2.16 5.19A7.391 7.391 0 0 1 8 15.3a7.391 7.391 0 0 1-5.214-2.15A7.32 7.32 0 0 1 .627 7.962a7.32 7.32 0 0 1 2.16-5.189A7.39 7.39 0 0 1 8 .624c1.956 0 3.83.773 5.214 2.15a7.32 7.32 0 0 1 2.16 5.188Z" fill="#1F86F9"></path><path d="M8 1.007a.107.107 0 0 0-.108.107v1.234c0 .059.048.107.108.107s.107-.048.107-.107V1.114A.107.107 0 0 0 8 1.007Zm-.703.044a.107.107 0 0 0-.118.118l.054.516a.107.107 0 0 0 .118.095.107.107 0 0 0 .096-.117l-.054-.517a.107.107 0 0 0-.096-.095Zm1.411 0a.107.107 0 0 0-.096.096l-.055.516a.107.107 0 0 0 .096.118.107.107 0 0 0 .118-.096l.055-.516a.107.107 0 0 0-.118-.118Zm-2.134.104a.107.107 0 0 0-.105.13l.257 1.207c.013.058.07.094.128.082a.107.107 0 0 0 .083-.127L6.68 1.24a.107.107 0 0 0-.106-.085Zm2.857.001a.107.107 0 0 0-.106.085l-.258 1.207a.107.107 0 0 0 .083.127.107.107 0 0 0 .127-.082l.258-1.208a.107.107 0 0 0-.104-.129Zm-3.546.193a.107.107 0 0 0-.111.14l.16.493a.107.107 0 0 0 .205-.066l-.161-.494a.107.107 0 0 0-.093-.073Zm4.231 0a.107.107 0 0 0-.093.073l-.161.494a.107.107 0 0 0 .204.066l.162-.493a.107.107 0 0 0-.112-.14Zm-4.913.248a.108.108 0 0 0-.096.15l.503 1.128a.107.107 0 0 0 .197-.087l-.504-1.127a.107.107 0 0 0-.1-.064Zm5.603.004a.108.108 0 0 0-.1.063L10.2 2.791a.108.108 0 0 0 .196.087l.506-1.127a.106.106 0 0 0-.096-.15Zm-6.236.33a.107.107 0 0 0-.061.013.106.106 0 0 0-.04.146l.261.45a.108.108 0 0 0 .187-.107l-.261-.45a.107.107 0 0 0-.086-.053Zm6.86 0a.107.107 0 0 0-.086.052l-.26.45a.108.108 0 0 0 .186.107l.26-.45a.106.106 0 0 0-.04-.146.108.108 0 0 0-.06-.014Zm-7.474.38a.108.108 0 0 0-.06.021.106.106 0 0 0-.024.15l.728.998a.108.108 0 0 0 .15.024.106.106 0 0 0 .025-.15l-.729-.998a.107.107 0 0 0-.09-.044Zm8.096.006a.107.107 0 0 0-.09.044l-.73.998a.107.107 0 0 0 .023.15.108.108 0 0 0 .15-.024l.73-.998a.107.107 0 0 0-.083-.17Zm-8.646.453a.107.107 0 0 0-.085.179l.349.385c.04.044.107.048.152.008a.106.106 0 0 0 .008-.15l-.35-.387a.107.107 0 0 0-.074-.035Zm9.188 0a.108.108 0 0 0-.074.036l-.35.386a.106.106 0 0 0 .009.151c.044.04.112.036.152-.008l.349-.386a.107.107 0 0 0-.085-.179Zm-9.714.503a.108.108 0 0 0-.074.036.106.106 0 0 0 .008.15l.921.826c.045.04.112.037.152-.007a.106.106 0 0 0-.008-.152l-.921-.825a.107.107 0 0 0-.078-.028Zm10.243.004a.107.107 0 0 0-.077.027l-.923.825a.106.106 0 0 0-.008.151c.04.044.108.048.152.008l.922-.825a.106.106 0 0 0 .008-.15.107.107 0 0 0-.074-.036Zm-10.68.557a.107.107 0 0 0-.068.193l.422.305a.108.108 0 0 0 .15-.023.106.106 0 0 0-.023-.15l-.422-.305a.108.108 0 0 0-.06-.02Zm11.117.003a.108.108 0 0 0-.059.02l-.422.306a.106.106 0 0 0-.024.15.108.108 0 0 0 .15.023l.422-.305a.107.107 0 0 0 .024-.15.107.107 0 0 0-.09-.044Zm-11.527.594a.107.107 0 0 0-.046.2l1.074.617c.051.03.117.012.147-.04a.106.106 0 0 0-.04-.146l-1.074-.617a.108.108 0 0 0-.06-.014Zm11.934 0a.107.107 0 0 0-.062.014l-1.073.617a.106.106 0 0 0-.04.147c.03.05.095.068.147.039l1.074-.617a.107.107 0 0 0-.046-.2Zm-12.243.637a.107.107 0 0 0-.046.205l.476.211c.055.025.118 0 .142-.054a.107.107 0 0 0-.054-.141l-.476-.211a.108.108 0 0 0-.042-.01Zm12.554.005a.108.108 0 0 0-.042.009l-.476.211a.107.107 0 0 0-.055.141.108.108 0 0 0 .142.055l.477-.212a.107.107 0 0 0 .054-.14.107.107 0 0 0-.1-.064Zm-12.83.66a.107.107 0 0 0-.024.21l1.179.382a.107.107 0 0 0 .136-.069.107.107 0 0 0-.07-.135L1.492 5.74a.108.108 0 0 0-.043-.005Zm13.105.006a.105.105 0 0 0-.042.004l-1.18.382a.107.107 0 0 0-.068.135.107.107 0 0 0 .135.068l1.18-.381a.107.107 0 0 0-.025-.208Zm-13.277.694a.107.107 0 0 0-.023.212l.51.107a.107.107 0 1 0 .045-.209l-.51-.108a.106.106 0 0 0-.022-.002Zm13.448 0a.133.133 0 0 0-.022.003l-.51.108a.107.107 0 0 0-.083.127c.012.058.07.095.127.082l.51-.108a.107.107 0 0 0-.022-.211Zm-13.578.703a.107.107 0 0 0 0 .213l1.233.13a.107.107 0 1 0 .022-.213l-1.233-.13h-.022Zm13.709.009a.1.1 0 0 0-.022 0l-1.233.128a.107.107 0 1 0 .022.213l1.233-.128a.107.107 0 0 0 0-.213Zm-13.73.71a.107.107 0 1 0 0 .214h.522a.107.107 0 1 0 0-.214h-.521Zm13.228 0a.107.107 0 1 0 0 .214h.521a.107.107 0 1 0 0-.214h-.521ZM2.4 8.44h-.022l-1.233.128a.107.107 0 1 0 .022.213L2.4 8.652a.107.107 0 0 0 0-.213Zm11.2.007a.107.107 0 0 0-.001.213l1.233.13a.107.107 0 1 0 .022-.213l-1.233-.13H13.6ZM1.784 9.17a.1.1 0 0 0-.022.002l-.51.108a.107.107 0 1 0 .045.21l.51-.108a.107.107 0 0 0-.023-.212Zm12.43.001a.107.107 0 0 0-.023.212l.51.108a.107.107 0 1 0 .045-.21l-.51-.108a.101.101 0 0 0-.022-.002Zm-11.57.421a.105.105 0 0 0-.043.005l-1.18.382a.107.107 0 0 0-.068.135.107.107 0 0 0 .135.068L2.67 9.8a.107.107 0 0 0-.025-.209Zm10.71.004a.107.107 0 0 0-.025.209l1.18.382a.107.107 0 0 0 .135-.069.107.107 0 0 0-.07-.135L13.398 9.6a.107.107 0 0 0-.043-.005Zm-11.16.832a.105.105 0 0 0-.042.01l-.477.21a.107.107 0 0 0-.054.142.107.107 0 0 0 .142.054l.476-.211a.107.107 0 0 0 .055-.141.107.107 0 0 0-.1-.064Zm11.609.004a.107.107 0 0 0-.046.205l.476.211c.055.024.118 0 .142-.054a.107.107 0 0 0-.054-.141l-.476-.212a.106.106 0 0 0-.042-.009Zm-10.682.232a.107.107 0 0 0-.061.014l-1.074.617a.107.107 0 0 0-.04.146c.03.052.096.07.147.04l1.074-.618a.107.107 0 0 0 .04-.146.107.107 0 0 0-.086-.053Zm9.756 0a.107.107 0 0 0-.046.2l1.073.616c.052.03.118.013.147-.039a.107.107 0 0 0-.039-.146l-1.074-.617a.108.108 0 0 0-.061-.014Zm-10.024.905a.108.108 0 0 0-.06.02l-.421.306a.106.106 0 0 0-.024.15.108.108 0 0 0 .15.023l.422-.305a.107.107 0 0 0-.067-.194Zm10.29.004a.107.107 0 0 0-.068.194l.422.305a.108.108 0 0 0 .15-.024.106.106 0 0 0-.024-.15l-.421-.305a.107.107 0 0 0-.06-.02Zm-9.334.037a.107.107 0 0 0-.077.027l-.922.825a.106.106 0 0 0-.008.151c.04.044.107.048.151.008l.922-.824a.107.107 0 0 0-.066-.187Zm8.377.003a.108.108 0 0 0-.074.035.106.106 0 0 0 .008.151l.921.826c.044.04.112.036.152-.008a.106.106 0 0 0-.008-.151l-.921-.826a.108.108 0 0 0-.078-.027Zm-7.502.784a.107.107 0 0 0-.09.044l-.73.998a.106.106 0 0 0 .024.15.108.108 0 0 0 .15-.024l.73-.998a.107.107 0 0 0-.083-.17Zm6.624.004a.107.107 0 0 0-.084.17l.728.999a.108.108 0 0 0 .15.024.106.106 0 0 0 .024-.15l-.728-.999a.107.107 0 0 0-.09-.044Zm-7.565.154a.107.107 0 0 0-.075.036l-.349.385a.106.106 0 0 0 .008.152c.044.04.112.036.152-.008l.349-.386a.107.107 0 0 0-.085-.178Zm8.512 0a.107.107 0 0 0-.086.18l.35.385c.039.044.107.048.15.008a.106.106 0 0 0 .009-.151l-.349-.386a.107.107 0 0 0-.074-.035Zm-6.552.429a.107.107 0 0 0-.1.063l-.506 1.127a.108.108 0 0 0 .196.087l.506-1.127a.107.107 0 0 0-.096-.15Zm4.585.003a.107.107 0 0 0-.096.15l.504 1.128a.107.107 0 0 0 .196-.087l-.504-1.128a.107.107 0 0 0-.1-.063Zm-5.473.345a.107.107 0 0 0-.086.053l-.26.45a.107.107 0 0 0 .186.107l.26-.45a.106.106 0 0 0-.039-.146.108.108 0 0 0-.061-.014Zm6.368 0a.107.107 0 0 0-.1.16l.26.45a.107.107 0 0 0 .186-.107l-.26-.45a.108.108 0 0 0-.086-.053Zm-4.356.016a.107.107 0 0 0-.105.085l-.258 1.207a.107.107 0 0 0 .083.127.107.107 0 0 0 .127-.082l.258-1.207a.107.107 0 0 0-.105-.13Zm2.34.001a.107.107 0 0 0-.105.13l.257 1.207c.012.057.07.094.127.082a.107.107 0 0 0 .083-.127l-.257-1.207a.107.107 0 0 0-.105-.085ZM8 13.47a.107.107 0 0 0-.108.107v1.234c0 .06.048.107.108.107s.107-.048.107-.107v-1.234A.107.107 0 0 0 8 13.47Zm-1.973.399a.107.107 0 0 0-.093.073l-.162.494a.107.107 0 0 0 .204.066l.162-.494a.107.107 0 0 0-.111-.14Zm3.945 0a.107.107 0 0 0-.111.14l.161.493a.107.107 0 0 0 .205-.066l-.162-.493a.107.107 0 0 0-.093-.074Zm-2.647.275a.107.107 0 0 0-.096.095l-.055.516a.107.107 0 0 0 .096.118.107.107 0 0 0 .118-.095l.055-.517a.107.107 0 0 0-.118-.117Zm1.345 0H8.65a.107.107 0 0 0-.096.118l.054.516a.107.107 0 0 0 .118.095.107.107 0 0 0 .096-.117l-.054-.516a.107.107 0 0 0-.097-.096Z" fill="#F4F2F3"></path><path d="m13.039 3.683-5.882 3.4-3.719 5.827 5.44-4.01 4.16-5.217Z" fill="black"></path><path d="M8.843 8.84 7.157 7.085l5.98-4.004-4.294 5.76Z" fill="#FF5150"></path><path d="M8.843 8.84 7.157 7.085l-4.294 5.76 5.98-4.003Z" fill="#F1F1F1"></path><path d="m2.863 12.845 5.98-4.004 4.294-5.761-10.274 9.765Z" fill="black"></path></svg>