<svg width="460" height="460" viewBox="0 0 460 460" fill="none" xmlns="http://www.w3.org/2000/svg">
<g clip-path="url(#clip0_8902_4)">
<path d="M230 0C102.975 0 0 102.975 0 230C0 328.967 62.507 413.335 150.196 445.778L447.33 154.523C416.094 64.571 330.588 0 230 0Z" fill="#38BDF8"/>
<path d="M447.313 154.521L361.073 68.281L21.407 230L138.189 346.781L100 394.5L150.196 445.77C175.058 454.968 201.94 460 230 460C357.025 460 460 357.025 460 230C460 203.559 455.524 178.166 447.313 154.521Z" fill="#0EA5E9"/>
<path d="M276.563 87.084V48.281H230L214.479 87.084H276.563Z" fill="#FFEDB5"/>
<path d="M230 48.281H183.437V87.083H230V48.281Z" fill="white"/>
<path d="M214.829 371.741L230 394.5H361.073V68.281H302L214.829 371.741Z" fill="#FFC61B"/>
<path d="M341.07 129V374.5H230L210.47 125L341.07 129Z" fill="#C2FBFF"/>
<path d="M341.07 88.28V129H230L206.66 88.28H341.07Z" fill="#71E2F0"/>
<path d="M158 68.281H100V394.5H230V371.741L158 68.281Z" fill="#FEE187"/>
<path d="M230 125V374.5H118.93V129L230 125Z" fill="white"/>
<path d="M230 88.28H118.93V129H230V88.28Z" fill="#C2FBFF"/>
<path d="M230 68.281L214.827 88.281L230 108.281H302V68.281H230Z" fill="#FEE187"/>
<path d="M230 68.281H158V108.281H230V68.281Z" fill="#FFEDB5"/>
<path d="M138.927 287.5V307.5H230L239.5 297.5L230 287.5H138.927Z" fill="#C2FBFF"/>
<path d="M281.073 287.5H230V307.5H281.073V287.5Z" fill="#71E2F0"/>
<path d="M321.073 287.5H301.073V307.5H321.073V287.5Z" fill="#71E2F0"/>
<path d="M138.927 331V351H230L239.5 341L230 331H138.927Z" fill="#C2FBFF"/>
<path d="M281.073 331H230V351H281.073V331Z" fill="#71E2F0"/>
<path d="M321.073 331H301.073V351H321.073V331Z" fill="#71E2F0"/>
<path d="M138.927 172.5V152.5H230L239.5 162.5L230 172.5H138.927Z" fill="#C2FBFF"/>
<path d="M281.073 152.5H230V172.5H281.073V152.5Z" fill="#71E2F0"/>
<path d="M321.073 152.5H301.073V172.5H321.073V152.5Z" fill="#71E2F0"/>
<path d="M100 265L21.407 230L100 211.333V265Z" fill="#FEE187"/>
<path d="M100 230H21.407L100 195V230Z" fill="white"/>
<path d="M341.411 264.999L100 265V230L351.411 211.333L341.411 264.999Z" fill="#121149"/>
<path d="M351.411 230H100V195H341.411L351.411 230Z" fill="#366796"/>
<path d="M351.411 219.474H230V239.474H351.411V219.474Z" fill="white"/>
<path d="M431.411 239.47V220.53L381.411 220.526V239.474L431.411 239.47Z" fill="#FEE187"/>
<path d="M401.64 265H361.64L351.64 211.333L401.64 230V265Z" fill="#121149"/>
<path d="M401.64 230H351.64L361.64 195H401.64V230Z" fill="#366796"/>
<path d="M341.411 264.999V230L346.411 220.666L361.411 230V264.999H341.411Z" fill="#FEE187"/>
<path d="M361.411 195.002H341.411V230.002H361.411V195.002Z" fill="white"/>
</g>
<defs>
<clipPath id="clip0_8902_4">
<rect width="460" height="460" fill="white"/>
</clipPath>
</defs>
</svg>
